# xmcd
#
# Track frame offsets:
#	150
#	16577
#	36326
#	58332
#	79993
#	101198
#	122339
#	144692
#	166446
#	185964
#	207997
#	227219
#	248756
#	264901
#	290250
#	309640
#
# Disc length: 4425 seconds
#
# Revision: 1
# Processed by: cddbd v1.5.2PL0 Copyright (c) Steve Scherf et al.
# Submitted via: EZCDAudioConverter 3.1.7.1
#
DISCID=ea114710
DTITLE=潘源良是誰最愛作品選
DYEAR=1900
DGENRE=country
TTITLE0=潘源良 - 最愛是誰
TTITLE1=羅文 - 夢非夢
TTITLE2=郭小霖 - 失戀專家
TTITLE3=林志美 - 永遠冬天
TTITLE4=黃凱芹 - 傷盡我心的說話
TTITLE5=林子祥 - 天空海闊
TTITLE6=杜德偉 - 如泣如訴
TTITLE7=周慧敏 - 感情的分禮
TTITLE8=陳慧嫻 - 今天的愛人是誰
TTITLE9=劉德華 - 離開妳以後
TTITLE10=草蜢 - 原諒我是我
TTITLE11=羅敏莊 - 挑戰者
TTITLE12=張敬軒/林子祥 - 相對論
TTITLE13=林憶蓮 - 兩心花
TTITLE14=譚詠麟 and 杜麗莎 - 重投再愛
TTITLE15=吳雨霏 - 一千個假想結局
EXTD=
EXTT0=
EXTT1=
EXTT2=
EXTT3=
EXTT4=
EXTT5=
EXTT6=
EXTT7=
EXTT8=
EXTT9=
EXTT10=
EXTT11=
EXTT12=
EXTT13=
EXTT14=
EXTT15=
PLAYORDER=
